# xmcd
#
# Track frame offsets: 
#        150
#        12836
#        42155
#        59906
#
# Disc length: 1091 seconds
#
# Revision: 0
# Processed by: cddbd v1.5.2PL0 Copyright (c) Steve Scherf et al.
# Submitted via: ExactAudioCopy v0.99pb5
#
DISCID=30044104
DTITLE=Lost Disciples - Inherit New Sin
DYEAR=1999
DGENRE=Punk Rock
TTITLE0=Beware the Passenger
TTITLE1=Dark Conversations
TTITLE2=Night Descends
TTITLE3=Danse Macabre
EXTD=
EXTT0=
EXTT1=
EXTT2=
EXTT3=
PLAYORDER=
